<mxfile host="app.diagrams.net" agent="Mozilla/5.0 (Windows NT 10.0; Win64; x64) AppleWebKit/537.36 (KHTML, like Gecko) Chrome/137.0.0.0 Safari/537.36" version="27.1.6">
  <diagram name="PÃ¡gina-1" id="PwQoLCqR4DSlBGLbm5Bj">
    <mxGraphModel dx="328" dy="182" grid="1" gridSize="1" guides="1" tooltips="1" connect="1" arrows="1" fold="1" page="1" pageScale="1" pageWidth="827" pageHeight="1169" math="0" shadow="0">
      <root>
        <mxCell id="0" />
        <mxCell id="1" parent="0" />
        <mxCell id="VZs5IcSjXEA9ZhMsPHqt-19" value="" style="verticalLabelPosition=bottom;verticalAlign=top;html=1;shape=mxgraph.basic.arc;startAngle=0.625;endAngle=0.8738870465116885;" parent="1" vertex="1">
          <mxGeometry width="160" height="160" as="geometry" />
        </mxCell>
        <mxCell id="VZs5IcSjXEA9ZhMsPHqt-24" value="" style="verticalLabelPosition=bottom;verticalAlign=top;html=1;shape=mxgraph.basic.arc;startAngle=0.12612873953696954;endAngle=0.375;" parent="1" vertex="1">
          <mxGeometry width="160" height="160" as="geometry" />
        </mxCell>
        <mxCell id="VZs5IcSjXEA9ZhMsPHqt-27" value="" style="endArrow=none;html=1;rounded=0;exitX=0.002;exitY=0.501;exitDx=0;exitDy=0;exitPerimeter=0;" parent="1" source="VZs5IcSjXEA9ZhMsPHqt-19" edge="1">
          <mxGeometry width="50" height="50" relative="1" as="geometry">
            <mxPoint x="9" y="108" as="sourcePoint" />
            <mxPoint x="52" y="80" as="targetPoint" />
          </mxGeometry>
        </mxCell>
        <mxCell id="VZs5IcSjXEA9ZhMsPHqt-30" value="" style="endArrow=none;html=1;rounded=0;" parent="1" edge="1">
          <mxGeometry width="50" height="50" relative="1" as="geometry">
            <mxPoint x="109" y="80" as="sourcePoint" />
            <mxPoint x="160" y="79.95999999999998" as="targetPoint" />
          </mxGeometry>
        </mxCell>
        <mxCell id="VZs5IcSjXEA9ZhMsPHqt-32" value="" style="verticalLabelPosition=bottom;verticalAlign=top;html=1;shape=mxgraph.basic.arc;startAngle=0.39693268081748273;endAngle=0.6071257245804536;" parent="1" vertex="1">
          <mxGeometry width="160" height="160" as="geometry" />
        </mxCell>
        <mxCell id="VZs5IcSjXEA9ZhMsPHqt-35" value="" style="endArrow=none;html=1;rounded=0;exitX=0.145;exitY=0.853;exitDx=0;exitDy=0;exitPerimeter=0;" parent="1" edge="1">
          <mxGeometry width="50" height="50" relative="1" as="geometry">
            <mxPoint x="30" y="143" as="sourcePoint" />
            <mxPoint x="59" y="115" as="targetPoint" />
          </mxGeometry>
        </mxCell>
        <mxCell id="VZs5IcSjXEA9ZhMsPHqt-36" value="" style="endArrow=none;html=1;rounded=0;" parent="1" edge="1">
          <mxGeometry width="50" height="50" relative="1" as="geometry">
            <mxPoint x="99" y="115" as="sourcePoint" />
            <mxPoint x="128" y="144" as="targetPoint" />
          </mxGeometry>
        </mxCell>
        <mxCell id="VZs5IcSjXEA9ZhMsPHqt-37" value="" style="endArrow=none;html=1;rounded=0;" parent="1" edge="1">
          <mxGeometry width="50" height="50" relative="1" as="geometry">
            <mxPoint x="59" y="115" as="sourcePoint" />
            <mxPoint x="99" y="115" as="targetPoint" />
          </mxGeometry>
        </mxCell>
        <mxCell id="V9Wty_80GlLiu4XSM66C-1" value="" style="endArrow=none;html=1;rounded=0;" parent="1" edge="1">
          <mxGeometry width="50" height="50" relative="1" as="geometry">
            <mxPoint x="56" y="80" as="sourcePoint" />
            <mxPoint x="106" y="79.93" as="targetPoint" />
          </mxGeometry>
        </mxCell>
        <mxCell id="2SoKIDOxQKr6_z6lC2vZ-1" value="" style="endArrow=none;html=1;rounded=0;exitX=0.002;exitY=0.501;exitDx=0;exitDy=0;exitPerimeter=0;" edge="1" parent="1">
          <mxGeometry width="50" height="50" relative="1" as="geometry">
            <mxPoint x="5" y="108" as="sourcePoint" />
            <mxPoint x="57" y="108" as="targetPoint" />
          </mxGeometry>
        </mxCell>
        <mxCell id="2SoKIDOxQKr6_z6lC2vZ-2" value="" style="endArrow=none;html=1;rounded=0;" edge="1" parent="1">
          <mxGeometry width="50" height="50" relative="1" as="geometry">
            <mxPoint x="104" y="108.04000000000002" as="sourcePoint" />
            <mxPoint x="155" y="108" as="targetPoint" />
          </mxGeometry>
        </mxCell>
        <mxCell id="2SoKIDOxQKr6_z6lC2vZ-3" value="" style="endArrow=none;html=1;rounded=0;exitX=0.141;exitY=0.15;exitDx=0;exitDy=0;exitPerimeter=0;" edge="1" parent="1" source="VZs5IcSjXEA9ZhMsPHqt-19">
          <mxGeometry width="50" height="50" relative="1" as="geometry">
            <mxPoint x="23" y="24" as="sourcePoint" />
            <mxPoint x="52" y="24" as="targetPoint" />
          </mxGeometry>
        </mxCell>
        <mxCell id="2SoKIDOxQKr6_z6lC2vZ-4" value="" style="endArrow=none;html=1;rounded=0;entryX=0.858;entryY=0.15;entryDx=0;entryDy=0;entryPerimeter=0;" edge="1" parent="1" target="VZs5IcSjXEA9ZhMsPHqt-24">
          <mxGeometry width="50" height="50" relative="1" as="geometry">
            <mxPoint x="109" y="24" as="sourcePoint" />
            <mxPoint x="137" y="24" as="targetPoint" />
          </mxGeometry>
        </mxCell>
        <mxCell id="2SoKIDOxQKr6_z6lC2vZ-5" value="" style="endArrow=none;html=1;rounded=0;" edge="1" parent="1">
          <mxGeometry width="50" height="50" relative="1" as="geometry">
            <mxPoint x="67" y="94" as="sourcePoint" />
            <mxPoint x="93" y="94" as="targetPoint" />
          </mxGeometry>
        </mxCell>
        <mxCell id="2SoKIDOxQKr6_z6lC2vZ-6" value="" style="endArrow=none;html=1;rounded=0;" edge="1" parent="1">
          <mxGeometry width="50" height="50" relative="1" as="geometry">
            <mxPoint x="67" y="108" as="sourcePoint" />
            <mxPoint x="93" y="108" as="targetPoint" />
          </mxGeometry>
        </mxCell>
        <mxCell id="2SoKIDOxQKr6_z6lC2vZ-7" value="" style="endArrow=none;html=1;rounded=0;" edge="1" parent="1">
          <mxGeometry width="50" height="50" relative="1" as="geometry">
            <mxPoint x="67" y="68" as="sourcePoint" />
            <mxPoint x="93" y="68" as="targetPoint" />
          </mxGeometry>
        </mxCell>
        <mxCell id="2SoKIDOxQKr6_z6lC2vZ-8" value="" style="endArrow=none;html=1;rounded=0;" edge="1" parent="1">
          <mxGeometry width="50" height="50" relative="1" as="geometry">
            <mxPoint x="67" y="52" as="sourcePoint" />
            <mxPoint x="93" y="52" as="targetPoint" />
          </mxGeometry>
        </mxCell>
        <mxCell id="2SoKIDOxQKr6_z6lC2vZ-9" value="" style="endArrow=none;html=1;rounded=0;" edge="1" parent="1">
          <mxGeometry width="50" height="50" relative="1" as="geometry">
            <mxPoint x="67" y="36" as="sourcePoint" />
            <mxPoint x="93" y="36" as="targetPoint" />
          </mxGeometry>
        </mxCell>
        <mxCell id="2SoKIDOxQKr6_z6lC2vZ-10" value="" style="endArrow=none;html=1;rounded=0;" edge="1" parent="1">
          <mxGeometry width="50" height="50" relative="1" as="geometry">
            <mxPoint x="55" y="24.069999999999993" as="sourcePoint" />
            <mxPoint x="105" y="24" as="targetPoint" />
          </mxGeometry>
        </mxCell>
      </root>
    </mxGraphModel>
  </diagram>
</mxfile>
